<svg xmlns="http://www.w3.org/2000/svg" enable-background="new 0 0 5000 5000" viewBox="0 0 5000 5000" id="Documentauditreview"><path fill="#96bac7" d="M1235.06 4299.69C779.45 4084.63-84.77 3290.41 234.53 1965.11c135.92-512.32 741.72-624.75 1219.94-375.52-730.87-439.44-489.33-1289.02 207.05-799.96 185.89 130.55 311.64 338.98 311.64 338.98-71.08-174.96-148.72-522.68 109.34-513.93 322.58 10.93 311.65 300.71 235.1 513.93 333.51-338.98 1421.52-913.05 2094.01-207.76 672.49 705.29 442.86 1678.49-131.22 2066.67-453.79 306.85-125.75 672.49 131.22 787.31 256.97 114.81 278.83 508.46-240.57 524.87-415.52 13.11-2135.92 30.97-2935.98-.01z" class="colorc796c4 svgShape"></path><path fill="#ffbf66" d="M1127.36 871.64h2733.69v3400.71H1127.36z" class="colorffffff svgShape"></path><path fill="#5b95a9" d="M2002.14 1276.23h995.06v32.8h-995.06zM1499.14 1604.27h809.17v32.8h-809.17zM1499.14 1844.83h776.37v32.8h-776.37zM1499.14 2085.4h1104.41v32.8H1499.14zM1499.14 2325.96h929.46v32.8h-929.46zM1499.14 2566.53h809.17v32.8h-809.17zM1499.14 2807.09h809.17v32.8h-809.17zM1499.14 3047.66H3500.2v32.8H1499.14zM1499.14 3288.22h1104.41v32.8H1499.14zM1499.14 3528.78h809.17v32.8h-809.17zM2428.6 1604.27h765.43v32.8H2428.6zM2428.6 1844.83h1071.61v32.8H2428.6zM3281.51 1604.27h218.7v32.8h-218.7zM2745.7 2085.4h754.5v32.8h-754.5zM2559.81 2325.96h940.39v32.8h-940.39zM2395.79 2566.53H3500.2v32.8H2395.79zM2428.6 2807.09h1071.61v32.8H2428.6zM2723.84 3288.22h776.37v32.8h-776.37z" class="color906baf svgShape"></path><path fill="#1c4959" d="m1510.63 3592.81 475.14-476.59c-80.73-128.91-127.58-281.27-127.58-444.78 0-462.59 373.9-837.54 835.1-837.54 461.21 0 835.07 374.95 835.07 837.54 0 462.61-373.85 837.54-835.07 837.54-177.41 0-341.74-55.64-476.97-150.16l-469.48 470.91c-32.63 32.69-75.39 48.97-118.11 48.97-42.76 0-85.48-16.28-118.15-48.97-65.19-65.46-65.19-171.48.05-236.92zm1182.66-355.19c311.73 0 564.47-253.46 564.47-566.14s-252.74-566.16-564.47-566.16c-311.75 0-564.47 253.48-564.47 566.16s252.72 566.14 564.47 566.14z" class="color221c59 svgShape"></path><ellipse cx="2493.99" cy="4305.15" fill="#78a8b8" rx="1738.63" ry="109.35" class="colorb878b3 svgShape"></ellipse></svg>