<svg xmlns="http://www.w3.org/2000/svg" viewBox="0 0 1200 1200" id="Searchingdata"><g data-name="19" fill="#000000" class="color000000 svgShape"><g fill="#000000" class="color000000 svgShape"><path fill="#3ca5c9" d="m258.35 630.57-10.63-2.32-2.42-10.61a.82.82 0 0 0-.8-.64.84.84 0 0 0-.81.64l-2.42 10.66-10.63 2.52a.84.84 0 0 0-.64.82.81.81 0 0 0 .65.79l10.63 2.32 2.41 10.61a.84.84 0 0 0 .81.64.82.82 0 0 0 .8-.64l2.43-10.66 10.63-2.52a.82.82 0 0 0 0-1.61ZM526.82 262.07l-7.73-1.68-1.76-7.72a.6.6 0 0 0-.58-.47.62.62 0 0 0-.59.47l-1.76 7.75-7.73 1.84a.6.6 0 0 0-.47.59.61.61 0 0 0 .48.58l7.73 1.68 1.75 7.72a.62.62 0 0 0 .59.47.6.6 0 0 0 .58-.47l1.77-7.75 7.73-1.84a.58.58 0 0 0 .46-.59.59.59 0 0 0-.47-.58ZM734.65 481.57l10.63-2.32 2.41-10.61a.84.84 0 0 1 .81-.64.82.82 0 0 1 .8.64l2.43 10.66 10.63 2.52a.82.82 0 0 1 0 1.61l-10.63 2.32-2.42 10.61a.82.82 0 0 1-.8.64.84.84 0 0 1-.81-.64l-2.42-10.66-10.63-2.52a.84.84 0 0 1-.64-.82.81.81 0 0 1 .64-.79ZM779.34 392l5.5-1.2 1.24-5.49a.43.43 0 0 1 .84 0l1.25 5.52 5.5 1.3a.44.44 0 0 1 .33.42.42.42 0 0 1-.34.41l-5.5 1.2-1.24 5.49a.43.43 0 0 1-.84 0l-1.25-5.52-5.5-1.3a.43.43 0 0 1-.33-.42.42.42 0 0 1 .34-.41Z" class="color4f3cc9 svgShape"></path></g><g fill="#000000" class="color000000 svgShape"><path fill="#ffbf66" d="M427.33 931.79V604a33.55 33.55 0 0 1 33.55-33.55h102a33.56 33.56 0 0 1 30.54 19.66L604.34 614a33.56 33.56 0 0 0 30.54 19.67H795.4a33.55 33.55 0 0 1 33.6 33.57v264.55a33.55 33.55 0 0 1-33.55 33.54H460.88a33.55 33.55 0 0 1-33.55-33.54Z" class="colorf582ae svgShape"></path><path fill="#3ca5c9" d="M795.4 968.33H460.88a36.59 36.59 0 0 1-36.55-36.54V604a36.59 36.59 0 0 1 36.55-36.55h102a36.64 36.64 0 0 1 33.27 21.42l10.88 23.93a30.6 30.6 0 0 0 27.8 17.91H795.4a36.59 36.59 0 0 1 36.6 36.53v264.55a36.59 36.59 0 0 1-36.6 36.54Zm-334.52-394.9A30.59 30.59 0 0 0 430.33 604v327.79a30.58 30.58 0 0 0 30.55 30.54H795.4a30.58 30.58 0 0 0 30.6-30.54V667.24a30.59 30.59 0 0 0-30.55-30.55H634.88a36.63 36.63 0 0 1-33.27-21.43l-10.87-23.93a30.62 30.62 0 0 0-27.81-17.9Z" class="color4f3cc9 svgShape"></path><path fill="#5b95a9" d="M778.15 965.33s-39.3-1.91-48.89-51.76l-34.4-194.66a33.54 33.54 0 0 0-33-27.71H357.58a33.55 33.55 0 0 0-33 39.77L363.7 938a33.55 33.55 0 0 0 33 27.32Z" class="color77e0b5 svgShape"></path><path fill="#3ca5c9" d="M778.15 968.33H396.67a36.57 36.57 0 0 1-35.91-29.76l-39.09-207a36.54 36.54 0 0 1 35.91-43.33h304.24a36.49 36.49 0 0 1 36 30.19l34.41 194.66c9 46.94 45.7 49.27 46.07 49.29ZM357.58 694.2a30.55 30.55 0 0 0-30 36.22l39.09 207a30.57 30.57 0 0 0 30 24.88h361.92c-.93-.5-1.89-1-2.85-1.62-10.58-6.44-24.27-19.74-29.42-46.57l-34.41-194.68a30.52 30.52 0 0 0-30.09-25.23Z" class="color4f3cc9 svgShape"></path></g><g fill="#000000" class="color000000 svgShape"><path fill="#3ca5c9" d="m554.81 386.39-97.76 39.3 75.72 29.72s68.05-19.17 22.04-69.02Z" class="color4f3cc9 svgShape"></path><path fill="#ffffff" d="M204 354.76s0 313.44 339.31 93.94c0 0-81.47 15.33-116.94-168.7Z" class="colorffffff svgShape"></path><path fill="#3ca5c9" d="M341.9 529.75q-35.49 0-63.06-15c-31.92-17.36-55.5-50.59-68.2-96.08a262 262 0 0 1-9.64-63.91v-2.15l227.67-76.55.65 3.37C447.46 373.58 477.76 413.81 500 431c23.46 18.13 42.59 14.8 42.78 14.76l15-2.82-12.82 8.29c-80.85 52.27-148.82 78.52-203.06 78.52ZM207 356.91a266.54 266.54 0 0 0 9.43 60.33c8.55 30.55 26.81 71.37 65.26 92.27C338.67 540.47 423.18 521 533 451.7c-8.75-1-22-4.58-36.73-16s-28-28.34-39.37-50.35c-13.72-26.56-24.76-60.68-32.85-101.45Z" class="color4f3cc9 svgShape"></path><path fill="#3ca5c9" d="m311.26 502.37-1.73-5.74c.7-.21 70.53-21.37 133.83-49.71l2.45 5.47C382.15 480.9 312 502.16 311.26 502.37ZM291.14 476.49l-1.75-5.74c.59-.18 60.13-18.52 132-48.78l2.32 5.53c-72.16 30.38-131.97 48.8-132.57 48.99ZM269.09 447.73l-1.75-5.73c.57-.17 57.33-17.56 132.06-46.89l2.19 5.59c-74.96 29.41-131.93 46.86-132.5 47.03ZM253.73 416.11l-1.73-5.75c.58-.18 58.59-17.34 85.88-29.58l2.46 5.48c-27.62 12.4-86.02 29.68-86.61 29.85Z" class="color4f3cc9 svgShape"></path></g><g data-name="Magnifying glass" fill="#000000" class="color000000 svgShape"><path fill="#3ca5c9" d="M848.28 711.89h27.8v88.18h-27.8z" transform="rotate(-32.22 862.204 755.992)" class="color4f3cc9 svgShape"></path><circle cx="792.14" cy="644.97" r="104.48" fill="#5b95a9" class="color77e0b5 svgShape"></circle><path fill="#3ca5c9" d="M792.35 752.48a108.19 108.19 0 0 1-24-2.7 106.92 106.92 0 1 1 24 2.7Zm-.37-209a101.45 101.45 0 1 0 86 47.34 100.79 100.79 0 0 0-85.98-47.3Z" class="color4f3cc9 svgShape"></path><circle cx="792.14" cy="644.97" r="79.68" fill="#ffffff" class="colorffffff svgShape"></circle><path fill="#3ca5c9" d="M792.28 727.62a82.66 82.66 0 1 1 69.81-126.73 82.64 82.64 0 0 1-69.81 126.73ZM792 568.26a76.71 76.71 0 1 0 65 35.83 76.16 76.16 0 0 0-47.91-33.9 77.24 77.24 0 0 0-17.09-1.93Z" class="color4f3cc9 svgShape"></path><rect width="49.84" height="156.24" x="891.79" y="765.29" fill="#5b95a9" rx="24.92" transform="rotate(-31.8 928.187 844.808)" class="color77e0b5 svgShape"></rect><path fill="#3ca5c9" d="M945.12 916.32a27.94 27.94 0 0 1-23.67-13l-56.72-90A27.92 27.92 0 0 1 912 783.51l56.73 90a27.91 27.91 0 0 1-23.58 42.8Zm-56.81-139.85a21.93 21.93 0 0 0-18.51 33.62l56.73 90a21.92 21.92 0 1 0 37.09-23.38l-56.73-90A21.79 21.79 0 0 0 893.2 777a22.09 22.09 0 0 0-4.89-.53Z" class="color4f3cc9 svgShape"></path></g></g></svg>